<svg width="28" height="28" viewBox="0 0 28 28" fill="none" xmlns="http://www.w3.org/2000/svg">
  <rect width="28" height="28" rx="4" fill="#4285F4"/>
  <path d="M14 6C9.58 6 6 9.58 6 14C6 18.42 9.58 22 14 22C18.42 22 22 18.42 22 14C22 9.58 18.42 6 14 6ZM14 20C10.69 20 8 17.31 8 14C8 10.69 10.69 8 14 8C17.31 8 20 10.69 20 14C20 17.31 17.31 20 14 20Z" fill="white"/>
  <path d="M14 10C11.79 10 10 11.79 10 14C10 16.21 11.79 18 14 18C16.21 18 18 16.21 18 14C18 11.79 16.21 10 14 10ZM14 16C12.9 16 12 15.1 12 14C12 12.9 12.9 12 14 12C15.1 12 16 12.9 16 14C16 15.1 15.1 16 14 16Z" fill="white"/>
  <circle cx="14" cy="14" r="2" fill="#4285F4"/>
</svg> 